# xmcd CD database file
#
# Track frame offsets:
#	150
#	26532
#	63562
#	74987
#	93117
#	126495
#	154107
#	162685
#	192380
#	204812
#
# Disc length: 3345 seconds
#
# Revision: 3
# Processed by: cddbd v1.5.2PL0 Copyright (c) Steve Scherf et al.
# Submitted via: CDex 1.70beta2
#
DISCID=930d0f0a
DTITLE=Various Artist - Sunday afternoon Jazz
DYEAR=2000
DGENRE=Jazz
TTITLE0=Bobby Hutcherson Hancock - Maiden Voyage
TTITLE1=Hank Mobley Antonio - Recado Bossa Nova
TTITLE2=The Four Freshmen - On The Sunny Side Of The Street
TTITLE3=The Three Sounds Skylar - Besame Mucho
TTITLE4=Benny Goodman - Sing, Sing, Sing
TTITLE5=Art Pepper - What Is This Thing Called Love
TTITLE6=June Christy Ellington - It Don't Mean A Thing
TTITLE7=Sonny Clark - Softly As In A Morning Sunrise
TTITLE8=Peggy Lee - Mack The Knife
TTITLE9=Lee Morgan - The Sidewinder
EXTD=YEAR: 2000
EXTT0=
EXTT1=
EXTT2=
EXTT3=
EXTT4=
EXTT5=
EXTT6=
EXTT7=
EXTT8=
EXTT9=
PLAYORDER=
